# xmcd CD database file
#
# Track frame offsets:
#	150
#	25729
#	44226
#	63952
#	78596
#	99832
#	113313
#	125578
#	151027
#
# Disc length: 2354 seconds
#
# Revision: 0
# Processed by: cddbd v1.5.2PL0 Copyright (c) Steve Scherf et al.
# Submitted via: CDex 1.70beta2
#
DISCID=64093009
DTITLE=Yoko Miura - Cielo
DYEAR=2004
DGENRE=Jazz
TTITLE0=Ground Zero (A Hole Appeared in the Sky)
TTITLE1=Waltz (Time Stopped)
TTITLE2=Droplets
TTITLE3=North II (Fragments of Songs Floated Down as Well)
TTITLE4=The World Reflected in a Small Pond
TTITLE5=Marionette
TTITLE6=Christmas Song
TTITLE7=Improvisation
TTITLE8=NY81st St. (After it was Over)
EXTD=YEAR: 2004
EXTT0=
EXTT1=
EXTT2=
EXTT3=
EXTT4=
EXTT5=
EXTT6=
EXTT7=
EXTT8=
PLAYORDER=
